<svg id="Capa_1" data-name="Capa 1" xmlns="http://www.w3.org/2000/svg" viewBox="0 0 272.13 71.78"><rect width="272.13" height="71.78" style="fill:none"/><g id="Grupo_1" data-name="Grupo 1"><path id="Trazado_1" data-name="Trazado 1" d="M164.65,207.83l-4.28-9.4h-19l-4.33,9.4h-5.6L150.8,166.4l19.46,41.43Zm-13-28.38a22.32,22.32,0,0,1-.9-2.27,17.59,17.59,0,0,1-.84,2.27l-6.6,14.38h14.9Z" transform="translate(-63.53 -164.5)" style="fill:#e8812d"/><rect id="Rectángulo_1" data-name="Rectángulo 1" x="109.68" width="4.65" height="43.33" style="fill:#e8812d"/><path id="Trazado_2" data-name="Trazado 2" d="M182.51,173.75a3.16,3.16,0,0,1,3.05-3.28h.23a3.09,3.09,0,0,1,3.23,2.95c0,.11,0,.22,0,.33a3.13,3.13,0,0,1-3,3.22h-.17a3.18,3.18,0,0,1-3.27-3.09.57.57,0,0,1,0-.13m.9,8.08h4.7v26h-4.7Z" transform="translate(-63.53 -164.5)" style="fill:#e8812d"/><path id="Trazado_3" data-name="Trazado 3" d="M212.85,204.87a11.31,11.31,0,0,1-8.09,3.7c-6.13,0-12.37-5.07-12.37-13.68,0-8.93,6.88-13.74,14.27-13.74a18.85,18.85,0,0,1,10.78,3v25.05c0,9.83-6.4,12.74-12.2,12.74a20.25,20.25,0,0,1-11.1-3.12l2.06-3.49a16.85,16.85,0,0,0,9,2.7c3.59,0,7.61-1.53,7.61-8.3Zm0-18.18a12.77,12.77,0,0,0-6.13-1.58c-4.87,0-9.41,3-9.41,9.78,0,4.28,2.54,9.67,8.4,9.67a8.71,8.71,0,0,0,7.13-4.07Z" transform="translate(-63.53 -164.5)" style="fill:#e8812d"/><path id="Trazado_4" data-name="Trazado 4" d="M240.7,207.83V193c0-5.07-1.37-7.66-6.08-7.66a10,10,0,0,0-7,3.28v19.18H223v-26h4.65v2.75a12.66,12.66,0,0,1,8.56-3.43c5.86,0,9.14,3,9.14,9.56v17.12Z" transform="translate(-63.53 -164.5)" style="fill:#e8812d"/><path id="Trazado_5" data-name="Trazado 5" d="M251.11,207.78V167.83h2.54v37.68h17.23v2.27Z" transform="translate(-63.53 -164.5)" style="fill:#758592"/><path id="Trazado_6" data-name="Trazado 6" d="M277.75,177.66a2.12,2.12,0,1,1,2.11-2.12,2.12,2.12,0,0,1-2.11,2.12m-1.17,5.28h2.33v24.89h-2.33Z" transform="translate(-63.53 -164.5)" style="fill:#758592"/><path id="Trazado_7" data-name="Trazado 7" d="M288.84,207.83V185.16h-4.22V183h4.22v-7.88c0-3.59.74-6.18,2.12-7.87a8.06,8.06,0,0,1,9.62-1.54l-1.11,2.22a5.75,5.75,0,0,0-3.07-.84c-3.54,0-5.23,3-5.23,7.5V183h6.18v2.17h-6.18v22.67Z" transform="translate(-63.53 -164.5)" style="fill:#758592"/><path id="Trazado_8" data-name="Trazado 8" d="M323.14,203.92c-1.95,2.7-5.6,4.55-10.25,4.55-7.19,0-12.58-5.23-12.58-12.9,0-7.87,4.81-13.26,12.53-13.26,7.55,0,10.94,6.08,10.94,12.15v.47h-21c0,.69.05,1.38.05,1.64.48,6.45,5.18,9.73,10.57,9.73a10.46,10.46,0,0,0,8.46-3.76Zm-1.85-11.1c-.53-4.49-3.33-8.35-8.67-8.35a9.37,9.37,0,0,0-9.46,7,9.19,9.19,0,0,0-.26,1.37Z" transform="translate(-63.53 -164.5)" style="fill:#758592"/><path id="Trazado_9" data-name="Trazado 9" d="M327.27,203.83a4.2,4.2,0,1,1,4.2,4.2,4.2,4.2,0,0,1-4.2-4.2v0m7.67,0a3.47,3.47,0,1,0-3.47,3.5,3.53,3.53,0,0,0,3.47-3.5m-2.11,2.27-1.93-1.85-.26-.25v2.1h-.7v-4.76h1.21c1,0,2,.36,2,1.43,0,.76-.57,1.3-1.55,1.42l2.18,1.91Zm-1.78-2.39c.94,0,1.4-.36,1.4-.94s-.46-.82-1.2-.82h-.62v1.76Z" transform="translate(-63.53 -164.5)" style="fill:#758592"/><path id="Trazado_10" data-name="Trazado 10" d="M75.11,235.06a4.27,4.27,0,0,1-2.91,1.08,4.48,4.48,0,0,1-.22-8.95h.19a4.24,4.24,0,0,1,2.91,1.12l-.45.59a3.42,3.42,0,0,0-2.56-1,3.56,3.56,0,0,0-3.58,3.55,1.93,1.93,0,0,0,0,.24,3.67,3.67,0,0,0,3.68,3.67h0a3.65,3.65,0,0,0,2.51-.89Z" transform="translate(-63.53 -164.5)" style="fill:#758592"/><path id="Trazado_11" data-name="Trazado 11" d="M82.86,236v-4H78.11v4h-.82v-8.63h.82v3.87h4.75v-3.87h.82V236Z" transform="translate(-63.53 -164.5)" style="fill:#758592"/><rect id="Rectángulo_2" data-name="Rectángulo 2" x="23" y="62.85" width="0.82" height="8.63" style="fill:#758592"/><path id="Trazado_12" data-name="Trazado 12" d="M94.91,236l-3.41-3.43H91V236H90.2v-8.62h1.68c1.39,0,3.15.52,3.15,2.5a2.58,2.58,0,0,1-2.49,2.68h0l3.6,3.46Zm-3.22-4.14c1.72,0,2.48-.85,2.48-2s-.88-1.77-2.17-1.77H91v3.75Z" transform="translate(-63.53 -164.5)" style="fill:#758592"/><path id="Trazado_13" data-name="Trazado 13" d="M101.56,236.14a4.48,4.48,0,0,1-.27-8.95h.27a4.44,4.44,0,0,1,4.54,4.33.6.6,0,0,1,0,.19,4.51,4.51,0,0,1-4.54,4.43m0-8.19a3.64,3.64,0,0,0-3.73,3.56v.12a3.69,3.69,0,1,0,7.37,0,3.72,3.72,0,0,0-3.64-3.72" transform="translate(-63.53 -164.5)" style="fill:#758592"/><path id="Trazado_14" data-name="Trazado 14" d="M108.39,236v-8.63h1.71c1.54,0,3.13.63,3.13,2.5,0,1.57-1,2.74-3.26,2.74h-.76V236Zm1.57-4.14c1.5,0,2.41-.73,2.41-2s-.93-1.77-2.06-1.77h-1.1v3.75Z" transform="translate(-63.53 -164.5)" style="fill:#758592"/><path id="Trazado_15" data-name="Trazado 15" d="M120.06,236l-3.41-3.43h-.48V236h-.82v-8.62H117c1.39,0,3.15.52,3.15,2.5a2.58,2.58,0,0,1-2.49,2.68h0l3.6,3.46Zm-3.22-4.14c1.72,0,2.48-.85,2.48-2s-.87-1.77-2.17-1.77h-1v3.75Z" transform="translate(-63.53 -164.5)" style="fill:#758592"/><path id="Trazado_16" data-name="Trazado 16" d="M128.66,236l-1-2.3h-4.21l-1,2.3h-.89l4-8.89,4,8.89Zm-2.92-6.6a3.7,3.7,0,0,1-.2-.52l-.2.52-1.58,3.56h3.56Z" transform="translate(-63.53 -164.5)" style="fill:#758592"/><path id="Trazado_17" data-name="Trazado 17" d="M137.93,235.06a4.23,4.23,0,0,1-2.9,1.08,4.48,4.48,0,0,1-.22-8.95H135a4.25,4.25,0,0,1,2.92,1.12l-.45.59a3.42,3.42,0,0,0-2.56-1,3.56,3.56,0,0,0-3.58,3.55v.24A3.69,3.69,0,0,0,135,235.4h0a3.67,3.67,0,0,0,2.51-.89Z" transform="translate(-63.53 -164.5)" style="fill:#758592"/><path id="Trazado_18" data-name="Trazado 18" d="M141.71,236v-7.89H139.2v-.73H145v.73h-2.5V236Z" transform="translate(-63.53 -164.5)" style="fill:#758592"/><rect id="Rectángulo_3" data-name="Rectángulo 3" x="83.43" y="62.85" width="0.82" height="8.63" style="fill:#758592"/><path id="Trazado_19" data-name="Trazado 19" d="M157.55,235.06a4.27,4.27,0,0,1-2.91,1.08,4.48,4.48,0,0,1-.22-8.95h.19a4.27,4.27,0,0,1,2.92,1.12l-.46.59a3.41,3.41,0,0,0-2.55-1,3.57,3.57,0,0,0-3.59,3.55,1.93,1.93,0,0,0,0,.24,3.67,3.67,0,0,0,3.68,3.67h0a3.65,3.65,0,0,0,2.51-.89Z" transform="translate(-63.53 -164.5)" style="fill:#758592"/><path id="Trazado_20" data-name="Trazado 20" d="M169.41,236l-1.23-1.48a3.08,3.08,0,0,1-2.71,1.63,3,3,0,0,1-1-5.89,2.36,2.36,0,0,1-.63-1.35,1.63,1.63,0,0,1,1.54-1.69h.16a2,2,0,0,1,1.53.66l-.49.49a1.46,1.46,0,0,0-1-.47.9.9,0,0,0-1,.82v.14a2.12,2.12,0,0,0,.66,1.27h3l-.16.63H165.8l4.64,5.24Zm-4.46-5.2A2.36,2.36,0,1,0,167.7,234Z" transform="translate(-63.53 -164.5)" style="fill:#758592"/><path id="Trazado_21" data-name="Trazado 21" d="M176.05,229.24V236h-.82v-8.85l6.61,7.05v-6.83h.82v8.92Z" transform="translate(-63.53 -164.5)" style="fill:#758592"/><path id="Trazado_22" data-name="Trazado 22" d="M191.44,236l-1-2.3h-4.21l-1,2.3h-.89l4-8.89,4,8.89Zm-2.92-6.6a3.7,3.7,0,0,1-.2-.52l-.2.52-1.58,3.56h3.55Z" transform="translate(-63.53 -164.5)" style="fill:#758592"/><path id="Trazado_23" data-name="Trazado 23" d="M195,236v-7.89h-2.51v-.73h5.84v.73h-2.51V236Z" transform="translate(-63.53 -164.5)" style="fill:#758592"/><path id="Trazado_24" data-name="Trazado 24" d="M205.71,227.35h.82V235a4.19,4.19,0,0,1-3.2,1.12c-2,0-3.19-1.09-3.19-3.28v-5.51H201v5.17c0,2.12.81,2.88,2.63,2.88a3.21,3.21,0,0,0,2.12-.66Z" transform="translate(-63.53 -164.5)" style="fill:#758592"/><path id="Trazado_25" data-name="Trazado 25" d="M214.05,236l-3.42-3.43h-.48V236h-.82v-8.62H211c1.39,0,3.15.52,3.15,2.5a2.59,2.59,0,0,1-2.49,2.68h0l3.6,3.46Zm-3.23-4.14c1.73,0,2.49-.85,2.49-2s-.88-1.77-2.18-1.77h-1v3.75Z" transform="translate(-63.53 -164.5)" style="fill:#758592"/><path id="Trazado_26" data-name="Trazado 26" d="M222.64,236l-1-2.3h-4.21l-1,2.3h-.89l4-8.89,4,8.89Zm-2.92-6.6a4.71,4.71,0,0,1-.21-.52,5.31,5.31,0,0,1-.2.52l-1.57,3.56h3.55Z" transform="translate(-63.53 -164.5)" style="fill:#758592"/><path id="Trazado_27" data-name="Trazado 27" d="M225.17,236v-8.62H226v7.89h3.68V236Z" transform="translate(-63.53 -164.5)" style="fill:#758592"/><path id="Trazado_28" data-name="Trazado 28" d="M240.48,236v-4h-4.74v4h-.82v-8.63h.82v3.87h4.74v-3.87h.82V236Z" transform="translate(-63.53 -164.5)" style="fill:#758592"/><path id="Trazado_29" data-name="Trazado 29" d="M244.15,236v-8.6h4.48v.73H245V231h2.94v.74H245v3.51h4V236Z" transform="translate(-63.53 -164.5)" style="fill:#758592"/><path id="Trazado_30" data-name="Trazado 30" d="M257,236l-1-2.3h-4.21l-1,2.3h-.89l4-8.89,4,8.89Zm-2.92-6.6c-.08-.17-.15-.35-.21-.52a5.31,5.31,0,0,1-.2.52l-1.57,3.56h3.55Z" transform="translate(-63.53 -164.5)" style="fill:#758592"/><path id="Trazado_31" data-name="Trazado 31" d="M259.57,236v-8.62h.82v7.89h3.68V236Z" transform="translate(-63.53 -164.5)" style="fill:#758592"/><path id="Trazado_32" data-name="Trazado 32" d="M266.76,236v-7.89h-2.51v-.73h5.84v.73h-2.51V236Z" transform="translate(-63.53 -164.5)" style="fill:#758592"/><path id="Trazado_33" data-name="Trazado 33" d="M277.57,236v-4h-4.74v4H272v-8.63h.82v3.87h4.74v-3.87h.82V236Z" transform="translate(-63.53 -164.5)" style="fill:#758592"/><path id="Trazado_34" data-name="Trazado 34" d="M291.47,235.06a4.27,4.27,0,0,1-2.91,1.08,4.48,4.48,0,0,1-.22-8.95h.19a4.27,4.27,0,0,1,2.92,1.12l-.46.59a3.35,3.35,0,0,0-2.55-1,3.56,3.56,0,0,0-3.59,3.54,1.93,1.93,0,0,0,0,.24,3.67,3.67,0,0,0,3.68,3.67h0a3.65,3.65,0,0,0,2.51-.89Z" transform="translate(-63.53 -164.5)" style="fill:#758592"/><path id="Trazado_35" data-name="Trazado 35" d="M293.65,236v-8.6h4.48v.73h-3.66V231h2.94v.74h-2.94v3.51h4V236Z" transform="translate(-63.53 -164.5)" style="fill:#758592"/><path id="Trazado_36" data-name="Trazado 36" d="M301.42,229.24l0,6.74h-.82v-8.85l6.61,7.05v-6.83h.82l0,8.92Z" transform="translate(-63.53 -164.5)" style="fill:#758592"/><path id="Trazado_37" data-name="Trazado 37" d="M312.46,236v-7.89H310v-.73h5.84v.73h-2.51V236Z" transform="translate(-63.53 -164.5)" style="fill:#758592"/><path id="Trazado_38" data-name="Trazado 38" d="M317.72,236v-8.6h4.48v.73h-3.66V231h2.94v.74h-2.94v3.51h4V236Z" transform="translate(-63.53 -164.5)" style="fill:#758592"/><path id="Trazado_39" data-name="Trazado 39" d="M329.4,236,326,232.55h-.48V236h-.82v-8.62h1.69c1.39,0,3.15.52,3.15,2.5a2.59,2.59,0,0,1-2.49,2.68h0l3.6,3.46Zm-3.23-4.14c1.72,0,2.49-.85,2.49-2s-.88-1.77-2.18-1.77h-1v3.75Z" transform="translate(-63.53 -164.5)" style="fill:#758592"/><path id="Trazado_40" data-name="Trazado 40" d="M68.22,167.7h0a4.69,4.69,0,0,0-4.69,4.69h0v26.73a4.69,4.69,0,0,0,4.69,4.69H87.48c1.26-4.41,1-6.87.2-9.63s-3-10.64-2.87-14.49c.11-5.19,3.16-8.77,3.37-12Z" transform="translate(-63.53 -164.5)" style="fill:#e8812d"/><path id="Trazado_41" data-name="Trazado 41" d="M91.32,206.9c1.62-4,3.32-9.5,2.09-13.41-.86-2.74-3.71-7.35-3.71-14,0-3.8,1.15-5.35,2-8.69h21.13a4.69,4.69,0,0,1,4.69,4.69v26.72a4.69,4.69,0,0,1-4.69,4.69H91.32Z" transform="translate(-63.53 -164.5)" style="fill:#758592"/></g></svg>